<?xml version="1.0" encoding="iso-8859-1"?>
<!-- Generator: Adobe Illustrator 16.0.0, SVG Export Plug-In . SVG Version: 6.00 Build 0)  -->
<!DOCTYPE svg PUBLIC "-//W3C//DTD SVG 1.1//EN" "http://www.w3.org/Graphics/SVG/1.1/DTD/svg11.dtd">
<svg version="1.1" id="Capa_1" xmlns="http://www.w3.org/2000/svg" xmlns:xlink="http://www.w3.org/1999/xlink" x="0px" y="0px"
	 width="448.586px" height="448.586px" viewBox="0 0 448.586 448.586" style="enable-background:new 0 0 448.586 448.586;"
	 xml:space="preserve">
<g>
	<g>
		<path d="M133.979,447.595h187.72c16.712,0,30.306-13.604,30.306-30.311V31.297c0-16.709-13.594-30.305-30.306-30.305h-187.72
			c-16.709,0-30.303,13.596-30.303,30.305v385.987C103.676,434.001,117.27,447.595,133.979,447.595z M115.525,31.297
			c0-10.168,8.287-18.456,18.453-18.456h187.72c10.187,0,18.454,8.287,18.454,18.456v385.987c0,10.182-8.268,18.459-18.454,18.459
			h-187.72c-10.166,0-18.453-8.277-18.453-18.459V31.297L115.525,31.297z"/>
		<path d="M130.218,395.058h195.263c1.636,0,2.966-1.325,2.966-2.96V53.242c0-1.635-1.33-2.963-2.966-2.963H130.218
			c-1.635,0-2.963,1.328-2.963,2.963v338.866C127.255,393.732,128.576,395.058,130.218,395.058z M141.08,56.205h173.54
			c4.361,0,7.901,3.54,7.901,7.901v317.129c0,4.362-3.54,7.901-7.901,7.901H141.08c-4.359,0-7.899-3.539-7.899-7.901V64.106
			C133.181,59.736,136.713,56.205,141.08,56.205z"/>
		<path d="M244.904,401.832h-34.129c-7.008,0-12.71,5.702-12.71,12.7v2.041c0,7.008,5.71,12.71,12.71,12.71h34.129
			c7.022,0,12.71-5.713,12.71-12.71v-2.041C257.614,407.534,251.927,401.832,244.904,401.832z M251.688,416.578
			c0,3.748-3.042,6.789-6.784,6.789h-34.129c-3.737,0-6.787-3.052-6.787-6.789v-2.036c0-3.737,3.057-6.779,6.787-6.779h34.129
			c3.753,0,6.784,3.052,6.784,6.779V416.578z"/>
		<path d="M260.524,203.745v-20.967c0-8.76-3.737-16.983-10.526-23.155c-1.742-1.587-3.636-2.976-5.647-4.18
			c-3.341-1.99-6.367-3.768-6.367-4.715v-1.714c0-4.71-4.631-8.391-10.555-8.391h-6.716c-5.923,0-10.552,3.681-10.552,8.391
			c0,0,0,0.924,0,2.062c0,1.138-3.344,3.364-6.906,5.87c-8.47,5.957-13.937,15.311-13.937,25.824v21.132
			c0,4.362-1.688,11.007-3.798,14.823c-4.41,7.992-11.314,20.454-15.257,27.578l-1.422,2.56c-4.075,7.338-4.55,14.37-1.343,19.819
			c3.209,5.443,9.585,8.439,17.974,8.439h10.667c4.359,0,9.407,3.397,12.946,5.956c4.489,3.256,11.171,5.286,18.763,5.286
			c7.602,0,14.289-2.03,18.778-5.286c3.529-2.559,8.582-5.956,12.949-5.956h11.669c8.435,0,14.655-2.915,17.498-8.216
			c2.834-5.297,1.818-12.07-2.838-19.104l-20.993-31.585C262.475,214.592,260.524,208.115,260.524,203.745z M220.713,146.392h6.716
			c2.75,0,4.796,1.389,4.796,2.63c0,0,0,0.411,0,0.924c0,0.513-1.609,0.6-3.626,0.404c-1.218-0.12-2.442-0.183-3.673-0.183
			c-1.542,0-3.06,0.094-4.542,0.285c-2.498,0.307-4.474,0.314-4.474-0.308v-1.122C215.909,147.773,217.966,146.392,220.713,146.392z
			 M217.735,281.021c-4.131-1.396-3.255-3.885,1.107-3.885h18.004c4.362,0,5.24,2.488,1.106,3.885
			c-2.965,1.006-6.448,1.6-10.112,1.6C224.181,282.621,220.698,282.018,217.735,281.021z M271.229,271.379h-85.757
			c-6.264,0-10.895-1.99-13.02-5.611c-2.125-3.61-1.62-8.627,1.421-14.106c9.364-16.879,14.617-26.35,17.54-31.791
			c2.062-3.849,3.476-10.636,3.506-14.995l0.16-22.089c0-14.805,13.391-26.853,29.854-26.853c8.028,0,15.554,2.828,21.201,7.965
			c5.585,5.062,8.647,11.771,8.647,18.895V205.5c0,4.359,1.955,10.846,4.372,14.479l21.947,33.032
			c3.447,5.175,4.352,9.871,2.559,13.208C281.862,269.535,277.444,271.379,271.229,271.379z"/>
		<path d="M59.292,283.322c2.259,2.244,6.139,2.214,8.383-0.041c1.104-1.122,1.714-2.604,1.714-4.199
			c0-1.584-0.632-3.057-1.754-4.179c-29.023-28.722-29.254-75.692-0.536-104.708c1.127-1.13,1.737-2.615,1.721-4.205
			c-0.015-1.587-0.64-3.064-1.77-4.161c-0.49-0.498-1.074-0.901-1.706-1.186c-2.252-1.036-4.923-0.538-6.667,1.216
			C25.371,195.529,25.63,250.016,59.292,283.322z"/>
		<path d="M47.244,315.461c1.107-1.122,1.716-2.61,1.699-4.189c0-1.579-0.622-3.072-1.752-4.169
			C0.405,260.776,0.019,185.038,46.338,138.247c2.29-2.315,2.275-6.061-0.048-8.392c-0.498-0.479-1.074-0.876-1.714-1.16
			c-2.245-1.018-4.923-0.536-6.667,1.231c-50.909,51.415-50.49,134.673,0.947,185.605C41.13,317.776,44.995,317.71,47.244,315.461z"
			/>
		<path d="M379.196,279.082c0,1.595,0.609,3.077,1.712,4.199c2.239,2.255,6.118,2.285,8.378,0.041
			c33.662-33.307,33.921-87.793,0.615-121.455c-1.747-1.754-4.408-2.252-6.668-1.216c-0.635,0.285-1.208,0.688-1.706,1.186
			c-1.132,1.097-1.757,2.574-1.772,4.161c-0.015,1.589,0.595,3.075,1.727,4.205c28.716,29.016,28.478,75.99-0.538,104.706
			C379.826,276.025,379.196,277.508,379.196,279.082z"/>
		<path d="M401.393,307.092c-1.128,1.107-1.752,2.601-1.752,4.175c-0.016,1.579,0.594,3.072,1.701,4.184
			c2.244,2.255,6.104,2.315,8.389,0.066c51.435-50.933,51.861-134.19,0.944-185.605c-1.741-1.77-4.423-2.252-6.667-1.231
			c-0.64,0.292-1.209,0.688-1.712,1.16c-2.325,2.331-2.341,6.076-0.051,8.389C448.557,185.038,448.181,260.776,401.393,307.092z"/>
	</g>
</g>
<g>
</g>
<g>
</g>
<g>
</g>
<g>
</g>
<g>
</g>
<g>
</g>
<g>
</g>
<g>
</g>
<g>
</g>
<g>
</g>
<g>
</g>
<g>
</g>
<g>
</g>
<g>
</g>
<g>
</g>
</svg>
